<?xml version="1.0" encoding="UTF-8"?>
<svg id="Layer_1" data-name="Layer 1" xmlns="http://www.w3.org/2000/svg" viewBox="0 0 640 640">
  <defs>
    <style>
      .cls-1 {
        fill: #ddcdbc;
        stroke-width: 0px;
      }
    </style>
  </defs>
  <path class="cls-1" d="M474.35,454.16c-3.57,1.52-7.11,1.23-10.54,1.48-10.71.76-21.46.79-32.19,1.32-11.45.57-22.87,1.68-34.29,2.75-2.17.2-4.35,1.11-6.37,2.05-8.49,3.97-17.32,6.72-26.55,8.38-17.52,3.15-35.05,4.01-52.62.61-7.69-1.49-15.1-3.97-22.43-6.73-9.91-3.73-19.29-8.55-28.24-14.1-7.48-4.64-14.37-10.17-20.46-16.63-2.5-2.65-3-2.58-4.51.59-3.57,7.49-7.23,14.95-9.66,22.9-1.49,4.87-5.41,5.32-9.32,6.41-11.46,3.21-23.26,4.67-34.89,7.01-2.44.49-4.85,1.13-7.28,1.69-.77.18-1.56.54-2.42-.14.59-1.2,1.72-1.37,2.67-1.77,9.85-4.21,20.2-6.64,30.63-8.88,3.49-.75,6.93-1.74,10.36-2.73,1.82-.53,2.77-1.98,3.4-3.71,3.26-9,6.88-17.85,10.86-26.56,7.97-17.45,17.41-34.05,28.11-49.96,7.96-11.84,17.03-22.77,27.06-32.91,9-9.1,18.98-16.96,30.04-23.4,2.58-1.5,5.27-2.88,8.17-3.7,1.11-.31,2.39-.73,3.21.47.9,1.3-.24,2.2-.97,3.03-7.91,9.12-13.63,19.5-17.34,30.92-2.99,9.21-3.75,18.59-.62,28,.97,2.91,2.01,3.65,5.13,3.51,9.57-.43,19.06-1.77,28.57-2.8,9.53-1.03,18.79-3.48,28.2-5.14,11.6-2.04,22.67-5.95,33.89-9.32,10.54-3.16,20.29-7.95,29.9-13.29,13.01-7.22,23.94-16.67,33.05-28.31,7.68-9.82,12.5-20.82,13.83-33.35,1.37-12.81-3.37-22.74-13.44-30.36-6.13-4.64-12.99-7.78-20.27-10.24-7.67-2.59-15.51-4.51-23.37-6.23-6.24-1.36-12.64-2.09-19.07-2.4-27.87-1.33-55.43,1.11-82.68,7.02-11.96,2.59-23.63,6.24-35.1,10.57-13.07,4.93-25.24,11.56-36.77,19.31-11.37,7.64-21.36,16.74-27.42,29.38-3.57,7.44-5.87,15.22-5.39,23.61.16,2.77.8,3.47,3.57,3.09,6.18-.85,12.35-1.85,18.52-2.8,1.23-.19,2.17-.77,2.61-2.02,5.55-15.76,16.99-26.61,30.16-35.93,14.68-10.39,30.6-18.32,48.17-22.38,13.04-3.02,26.13-5.84,39.65-6.31,5.03-.17,10.13-.64,15.17-.8,9.07-.28,18.14.44,27.06,2.36,5.44,1.17,10.88,2.34,16.07,4.42,7.49,2.99,14.78,6.26,18.74,13.95,4.86,9.42,4.65,19.01,1,28.77-3.1,8.29-8.41,15.01-14.6,21.15-10.3,10.24-22.76,16.95-36.21,21.99-6.57,2.46-13.42,3.94-20.43,4.5-3.16.25-4.98-1.09-5.15-4.07-.7-12.44,3.11-22.91,14.11-29.7,7.66-4.73,16.26-5.97,25.18-6,4-.01,6.36,1.16,7.98,4.98,2.23,5.25,2.84,5.18,6.4.63,4.72-6.04,9.36-12.13,11.65-19.63,2.93-9.61-2.2-16.94-12.25-17.33-2-.08-4.02-.18-5.99.06-5.42.67-10.27-.94-15.21-2.92-12.49-4.99-25.53-7.22-38.93-5.55-10.22,1.28-19.85,4.9-29.34,8.85-19.17,7.97-36.34,19.18-52.22,32.41-18.29,15.24-34.39,32.58-48.52,51.74-2.82,3.82-5.46,7.76-8.18,11.64-2.17,3.1-4.16,3.16-5.95-.11-3.22-5.88-5.5-12.19-6.81-18.72-3.02-15.07-5.01-30.28-3.42-45.68,1.13-10.94,3.08-21.72,6.87-32.14,3.31-9.1,7.02-18.01,12.03-26.26,8.31-13.7,19.13-25.28,31.18-35.77,9.39-8.17,20.09-14.22,31.31-19.34,11.4-5.2,23.46-8.38,35.87-10.16,8.42-1.21,16.86-1.93,25.39-1.7,9.8.27,19.35,1.88,28.84,4.24,10.96,2.72,21.5,6.45,31.34,11.99,6.23,3.5,11.83,8.02,17.9,11.76,6.87,4.23,12.59,9.78,18.62,14.99.31.27.6.59.8.95,2.74,4.96,7.15,7.34,12.54,8.53,9.31,2.05,17.27,6.87,24.34,13.02,5.51,4.79,9.09,10.96,10.56,18.24,2,9.86-.27,19.11-3.76,28.26-2.11,5.53-4.89,10.69-7.93,15.72-.67,1.12-.62,2.24-.47,3.38,1.23,9.54.09,18.97-1.45,28.35-1.13,6.9-3.24,13.58-5.21,20.29-4.18,14.29-10.78,27.3-19.55,39.31-5.67,7.76-12.36,14.56-19.15,21.29-1.79,1.78-1.72,2.33.59,3.21,8.01,3.05,16.21,5.46,24.53,7.56,5.63,1.42,11.25,2.89,16.94,4.03.69.14,1.48.28,2.14,1.34ZM448.86,452.2c-1.25-1.26-2.56-1.29-3.71-1.66-13.45-4.31-27.11-7.92-39.25-15.68-8.94-5.72-18.52-10.4-26.59-17.49-7.33-6.44-13.9-13.4-17.33-22.73-.88-2.38-2.18-2.95-4.49-2.76-10.2.85-20.41,1.6-30.62,2.38-3.32.25-6.64.53-9.97.71-2.32.12-2.86,1.31-2.24,3.32.19.63.43,1.26.7,1.86,3.89,8.83,10.01,16.13,16.58,22.97,11.32,11.79,25.12,20.1,39.58,27.52,7.26,3.73,14.71,4.96,22.68,4.36,6.7-.5,13.4-1.02,20.11-1.23,9.65-.31,19.31-.35,28.97-.49,1.83-.03,3.56-.44,5.59-1.08Z"/>
  <path class="cls-1" d="M242.59,195.64c-1.1-5.8-2.19-11.6-3.31-17.4-.2-1.06-1.03-1.65-1.83-2.28-3.05-2.42-6.07-4.87-9.48-7.62,3.68-2.21,7.06-4.26,10.45-6.27.52-.31,1.15-.43,1.47.32.26.6-.21.87-.63,1.18-1,.72-2.25,1.1-3.29,2.44,8.02,6.67,16.04,13.34,24.06,20.01.22-.09.44-.19.65-.28-2.27-10.1-4.54-20.2-6.77-30.15-2.18-.67-3.34,2.73-6.06.71,3.42-2,6.44-3.82,9.52-5.52.41-.23.79.47,1.06,1.21-3.03.95-2.51,3.12-1.96,5.55,2.59,11.44,5.06,22.9,7.54,34.36.2.91.82,1.98-.33,2.72-1.15.73-2.25.39-3.23-.39-5.23-4.12-10.44-8.26-15.69-12.35-.81-.64-1.48-1.56-2.99-1.74,1.66,8.44,3.29,16.73,4.91,24.93-2.36,1.76-4.02.36-5.56-.84-4.47-3.47-8.86-7.04-13.28-10.58-4.81-3.85-9.64-7.67-14.4-11.58-1.37-1.13-2.58-1.75-4.13-.43-.54.46-1.27.72-1.71-.07-.46-.83.32-1.14.88-1.48,3.77-2.28,7.55-4.55,11.32-6.82.82-.49,1.67-1.06,2.07.48-.95,1.41-2.88,1.6-4.11,3.21,2.82,2.3,5.6,4.64,8.44,6.88,5.22,4.12,10.14,8.62,15.62,12.4.17.34.39.79.82.54.52-.3.34-.77-.03-1.14Z"/>
  <path class="cls-1" d="M168.39,394.41c2.3-3,4.66-6.08,7.01-9.16.86-1.13,1.68-2.28,2.53-3.41,1.37-1.83,3.28-3.47,2.04-6.17-.08-.17.08-.48.19-.7.07-.13.24-.22.6-.52,1.29,1.55,1.47,3.6,2.43,5.22,1.98,3.32,1.45,5.93-1.22,8.75-3.31,3.5-6.15,7.44-9.19,11.19-1.18,1.45-.91,4.59.44,5.86.44.41.9.4,1.38.21,4.79-1.88,9.57-3.78,14.29-5.65.1-2.02-1.46-3.39-1.28-5.22,1.07-.72,1.49-.09,1.84.79,1.86,4.72,3.74,9.44,5.59,14.16.22.57.72,1.24-.27,1.66-1,.42-1.1-.43-1.39-.97-.58-1.09-.69-2.41-1.78-3.55-3,1.16-6.08,2.33-9.15,3.54-7.67,3.01-15.31,6.08-23.01,9.02-1.87.71-2.63,1.54-1.5,3.42.34.57.62,1.19.79,1.83.14.52-.12.99-.69,1.15-.46.13-.8-.05-.98-.51-.06-.16-.14-.3-.2-.46-2.68-6.99-5.39-13.97-8.02-20.98-.62-1.64-.77-3.42-.53-5.18.58-4.26,2.45-7.66,6.76-9.06,4.3-1.39,8.02-.11,11.22,2.95.59.56.91,1.41,2.11,1.78ZM171.42,406.91c-1.77-4.62-2.63-9.49-8.36-10.45-3.78-.63-8.61,1.65-10.44,4.96-2.5,4.53.31,8.17,1.84,12.18,5.75-2.27,11.2-4.42,16.97-6.7Z"/>
  <path class="cls-1" d="M358.22,518.17c2.08-8.16,4.17-16.31,6.22-24.36-1.57-.94-3.15.31-4.48-.96,1.61-1.34,3.43-.86,5.05-1.21,2.15-.46,4.27-.22,6.53-1,7.84-2.72,15.91-4.79,24.17-7.19,1.29,3.25,2.22,6.46,3.04,9.63-1.08.69-1.41.02-1.8-.51-.84-1.14-1.6-2.34-2.52-3.41-1.45-1.7-3.32-2.41-5.58-2.09-8.25,1.15-8.57,1.62-6.21,9.43.6,1.98,1.21,3.96,1.84,6.04,3.86-.14,7.17-2.58,11.05-2.04-3.02,2.37-6.94,2.44-10.49,4.1,1.39,4.77,2.74,9.43,4.18,14.36,2.98-.9,5.72-1.57,8.33-2.57,2.56-.98,3.29-3.26,3.59-5.82.18-1.52-.58-3.31,1.27-4.97,1.19,3.47,1.98,6.71,2.71,10.23-8.63,2.41-17.03,5.19-25.57,7.38-.33-1.14-.02-1.36.27-1.48,3.43-1.38,3.45-1.38,2.38-5.1-2.42-8.39-4.85-16.77-7.3-25.24-2.65.11-5.07.88-7.48,1.61-1.07.32-.98,1.49-1.2,2.32-2.42,9.17-4.78,18.36-7.16,27.54-.13.48-.26.96-.39,1.44-.26.93-.22,2.07-1.62,2.16-1.22.08-2.12-.44-2.67-1.49-1.69-3.25-3.35-6.51-4.98-9.79-2.93-5.89-5.86-11.77-8.72-17.69-.65-1.34-1.37-2.25-3.01-1.9-.59.12-.95-.17-1-1.18,4.31-.73,8.71-.92,13.26-1.24-.47,2.36-2.7.88-3.87,2.4,3.7,7.43,7.51,15.1,11.33,22.77.28-.05.56-.1.85-.15Z"/>
  <path class="cls-1" d="M306.92,148.74c-.24,3.24.37,6.44.58,9.66.36,5.56.94,11.12,1.25,16.68.12,2.19.86,3,3.06,2.5.94-.21,2-.17,2.61.85-.21.9-.92.73-1.43.78-3.48.32-6.96.61-10.45.86-.6.04-1.44.29-1.54-.73-.11-1.09.79-.85,1.38-.96.49-.1.99-.12,1.49-.12,1.77,0,2.41-.68,2.23-2.61-.96-10.69-1.85-21.4-2.6-32.11-.16-2.33-.9-3.07-3.18-2.68-.78.13-2.35.82-2.47-.66-.11-1.48,1.48-.83,2.33-1.08,5.66-1.69,9.53.57,13.29,4.9,6.21,7.16,13.08,13.74,19.67,20.56.5.52.88,1.22,1.9,1.36.64-.95.28-2.03.2-3.03-.58-7.3-1.28-14.6-1.74-21.91-.14-2.2-.81-3.02-3-2.6-.88.17-1.81.03-2.73.03-.56-1.12-.05-1.53,1.01-1.62,3.65-.31,7.3-.62,10.95-.94.82-.07,1.52,0,1.5,1.24-1.47.97-3.39.33-5.11,1.28.37,4.96.71,10,1.12,15.04.54,6.64,1.17,13.27,1.64,19.91.09,1.23,1.06,2.79-.85,3.73-1.94.95-3.06-.08-4.28-1.35-7.65-8-15.34-15.96-23-23.95-1.07-1.12-2.08-2.3-3.12-3.45-.24.14-.47.28-.71.42Z"/>
  <path class="cls-1" d="M157.22,374.53c-11.7-.03-20.4-9.09-20.43-21.25-.02-12.19,8.97-20.43,22.23-20.36,11.6.06,20.17,9.26,20.07,21.57-.09,11.66-9.28,20.08-21.87,20.04ZM155.06,366.35c5.83-.31,11.62-.76,16.8-3.96,4.06-2.51,5.69-6.22,5.21-10.81-.48-4.55-2.91-7.82-7.38-9.1-8.41-2.42-16.71-1.61-24.58,2.01-4.89,2.25-6.95,6.58-6.28,11.4.73,5.27,3.85,8.53,9.26,9.79,2.3.53,4.63.51,6.97.68Z"/>
  <path class="cls-1" d="M383.73,184.09c-4.81-3.05-10.01-1.58-14.96-2.12-13.05-1.43-20.71-13.03-17.73-25.79,3.7-15.87,20.03-20.34,31.92-12.86.98.62,1.97.79,3.07.78,1.39-.02,2.77,0,4.52,0-.87,4.76-1.65,9.06-2.43,13.33-2.11.24-1.93-1.11-2.09-2.22-.52-3.64-1.04-7.23-4.06-9.9-6.14-5.44-15.36-4.04-19.26,3.14-3.55,6.53-4.97,13.58-4.27,20.97.8,8.42,9.99,13.31,17.56,9.5.85-.43,1.56-.87,1.77-1.91.65-3.34,1.35-6.67,2.02-9.92-1.64-1.58-4.17-.46-5.42-2.32-.12-.18.13-.61.25-1.1,5.5,1.14,10.93,2.26,16.37,3.36.67.13,1.13.36.99,1.11-.15.8-.76.75-1.36.63-1.05-.21-2.08-.59-3.36-.38-1.59,5.08-2.16,10.45-3.52,15.71Z"/>
  <path class="cls-1" d="M395.65,187.02c-1.03.31-1.59,1.97-3.1.47,1.82-3.68,3.69-7.45,5.54-11.23.38-.77.92-.88,1.64-.58.79.33.84.95.6,1.65-.71,2.15-1.19,4.33-1.11,6.61.18,5.9,6.41,11.01,12.23,10.04,4.1-.69,6.66-4.71,5.57-8.76-.83-3.06-2.87-5.41-4.7-7.88-1.78-2.4-3.87-4.58-5.27-7.26-4.12-7.84.6-15.44,9.43-15.06,6.08.26,10.88,3.27,15.05,7.47.46.47.89.98,1.37,1.51.98.02,1.65-1.36,3.19-.32-1.61,3.2-3.24,6.48-4.92,9.74-.26.5-.81.54-1.32.31-.6-.28-.86-.69-.65-1.4.33-1.11.72-2.24.82-3.38.51-5.7-5.11-11.26-10.85-10.81-4.11.32-6.7,4.53-5.31,8.63.92,2.74,2.72,4.94,4.47,7.16,1.91,2.41,3.89,4.77,5.35,7.51,4.11,7.72-.79,16-9.55,15.76-6.76-.18-12.3-3.18-16.72-8.27-.49-.56-.94-1.15-1.42-1.72-.05-.06-.14-.08-.33-.18Z"/>
  <path class="cls-1" d="M277.64,501.35c-1.31,3.77-2.6,7.53-3.91,11.29-.41,1.19.05,1.76,1.18,2.27.78.35,2.33.08,2.16,2.12-4.9-1.43-9.58-2.97-14.26-4.83.78-1.36,1.59-.87,2.16-.58,2.12,1.09,2.87.12,3.49-1.84,2.8-8.76,5.73-17.48,8.59-26.16-1.28-1.12-3.16-.74-3.97-2.28.61-.76,1.47-.46,2.04-.28,5.03,1.57,10.03,3.22,15.03,4.9,1.9.64,3.67,1.57,5.15,2.97,2.51,2.38,3.61,5.29,2.57,8.6-1.08,3.46-3.61,5.51-7.26,6.04-.81.12-1.63.16-2.36.23-.71,1.04-.24,1.92-.04,2.77.91,3.98,2.05,7.91,2.69,11.93.31,1.96,2.4,2.12,3.14,4.02-3.09-.48-5.58-1.64-8.14-2.51-.84-.29-.87-1.13-1.01-1.87-.83-4.25-1.87-8.47-2.45-12.75-.4-2.96-2.05-3.85-4.81-4.05ZM282.97,485.13c-1.53,4.55-2.94,8.78-4.37,13.01-.21.61-.19,1.09.36,1.54,1.85,1.48,6.97,2.02,9.06.76,2.91-1.76,4.04-4.56,3.97-7.82-.06-3.11-1.85-5.06-4.68-6.1-1.31-.48-2.66-.85-4.34-1.39Z"/>
  <path class="cls-1" d="M199.5,252.79c-1.51,3.39-2.82,6.7-4.46,9.84-.61,1.17-.99,2.4-1.53,3.58-.25.55-.36,1.18-1.16.9-.78-.27-.62-.87-.41-1.44.3-.85.61-1.7,1.06-2.97-3.24-.18-6.27-.4-9.29-.5-5.71-.18-4.06-1.25-6.62,4.14-1.07,2.25-2.02,4.56-3.01,6.86-.28.66-.82,1.37-.13,2.08,2.99,3.1,6,6.18,8.88,9.14,1.99-.99,1.37-3.76,4.41-3.81-1.72,3.82-3.26,7.33-4.9,10.79-.25.53-.88.16-1.67-.19,3.32-3.87-.11-5.72-2.31-7.92-8.07-8.07-16.15-16.12-24.26-24.15-.98-.97-1.45-1.79-.83-3.26.62-1.47,1.48-1.68,2.89-1.63,12.32.43,24.65.76,36.97,1.19,1.93.07,3.68.2,4.35-2.19.15-.55.82-.79,2.01-.45ZM176.86,261.97c-5.77-.14-11.04-.93-15.95-.58,3.61,3.81,7.23,7.62,11.06,11.66,1.61-3.65,3.14-7.11,4.89-11.08Z"/>
  <path class="cls-1" d="M140.22,311.05c6.57-2.26,13.11-4.51,20.39-7.01-6.07-4.48-11.56-8.54-17.04-12.59-1.62,1.32-.21,4.14-3.22,5.05.71-4.33,1.34-8.17,1.98-12.07,1.59.42,1.5,1.41,1.5,2.3,0,1.83.83,3.14,2.29,4.18,5.3,3.75,10.57,7.54,15.84,11.32.82.59,1.66,1.01,2.7,1.17,4.52.7,9.02,1.48,13.5,2.22,1.36-1.36.2-3.85,3.05-5.06-1.03,6.31-1.97,12.09-2.92,17.94-1.88.21-1.74-.75-1.5-1.93.21-1.05.25-2.13.41-3.59-6.82-.58-13.2-3.87-20.23-.5-5.29,2.54-11.04,4.14-16.61,6.1-1.37.48-2.42,1.05-2.37,2.73.02.7-.2,1.42-1.14,1.23-.78-.16-.69-.83-.59-1.41.76-4.68,1.54-9.36,2.27-14.04.11-.73.42-1.08,1.13-.97.8.12.77.74.68,1.35-.18,1.12-.7,2.23-.12,3.58Z"/>
  <path class="cls-1" d="M202.53,246.39c-9.86-7.53-19.6-14.97-29.27-22.36-1.38.81-1.89,2-2.73,2.89-.39.42-.72,1.29-1.58.63-.84-.64-.22-1.18.16-1.68,2.61-3.45,5.24-6.88,7.87-10.31.61-.79,1.23-1.57,1.84-2.36.33-.43.74-.73,1.28-.4.71.43.44.95.06,1.47-.83,1.13-1.65,2.28-2.7,3.72,9.89,7.56,19.68,15.05,29.64,22.66,2.29-2.79,4.44-5.31,6.1-8.18,1.1-1.89.59-3.87-.32-5.74-1.1-2.26-2.71-4.18-4.2-6.18-.37-.5-1.01-1.06-.22-1.7.56-.46,1.05-.16,1.55.24,3.22,2.6,6.46,5.17,9.85,7.89-6.34,8.38-12.47,16.61-19.08,24.46-.22.27-.77-.08-1.15-.57.92-1.41,1.87-2.88,2.9-4.47Z"/>
  <path class="cls-1" d="M298.14,182.07c-5.52,1.69-10.82,3.3-16.12,4.92-.49.15-1.01.23-1.25-.4-.29-.77.24-1.01.81-1.26,1.2-.54,2.59-.61,3.85-1.71-3.51-11.65-7.05-23.39-10.57-35.1-1.52-.21-2.62.48-3.8.79-.67.17-1.41.4-1.73-.4-.36-.9.46-1.14,1.08-1.32,4.93-1.49,9.87-2.95,14.8-4.42.58-.17,1.19-.32,1.43.46.25.81-.42.91-.93,1.19-1.19.65-3.24.21-3.54,1.75-.25,1.24.55,2.7.95,4.05,2.87,9.55,5.81,19.08,8.6,28.65.57,1.97,1.21,2.93,3.39,1.94.88-.4,2.09-.9,3.03.89Z"/>
  <path class="cls-1" d="M241.05,474.8c1.65-2.76,3.33-5.6,5.03-8.43.53-.88,1.16-.91,2.08-.38,7.19,4.16,14.42,8.26,21.64,12.39.72.41,1.61.84,1.04,1.9-1.59,2.99-3.23,5.94-4.81,8.84-1.49-.28-1.38-1.08-1.19-1.96.3-1.38.61-2.76.83-4.16.61-3.87-.81-6.2-4.89-7.74-1.47,2.52-2.98,5.07-4.45,7.65-3.1,5.41-6.13,10.86-9.32,16.22-1.08,1.81-1.4,3.08.92,4.02.72.29,1.52.77,1.41,2.21-4.98-2.47-9.6-5.21-14.68-8.25,2.61-1.18,3.81,1.24,5.92,1.19,4.89-8.54,9.87-17.24,14.83-25.9-2.62-2.57-5.53-2.85-8.38-.79-1.27.92-2.38,2.06-3.55,3.13-.7.64-1.35,1.37-2.44.07Z"/>
  <path class="cls-1" d="M333.83,527.91c-4.26-.54-8.48-1.07-13.29-1.67,1.49-1.73,2.81-.66,4.07-1.39-.5-3.35-1.54-6.72-2.5-10.09-.22-.77-1.02-.8-1.66-.88-1.4-.18-2.81-.32-4.22-.46-7.04-.7-4.88-1.73-8.46,4.7-.8,1.44-1.49,2.94-2.2,4.34.74,1.53,3,.22,3.41,2.07-2.86.63-8.28-.25-9.41-1.51.09-.12.21-.36.27-.35,2.78.62,3.79-1.07,4.9-3.25,4.23-8.38,8.67-16.67,13.04-24.98.55-1.05.83-2.38,2.61-2.15,1.64.22,1.88,1.4,2.22,2.61,2.59,9.29,5.19,18.57,7.74,27.86.49,1.78.71,3.66,3.16,3.77.37.02.46.42.31,1.38ZM317.91,498.58c-2.31,4.45-4.31,8.32-6.47,12.48,3.44.56,6.46,1.16,9.94.89-1.16-4.45-2.23-8.6-3.47-13.37Z"/>
  <path class="cls-1" d="M432.23,490.33c2.32,2.92,3.27,6.59,5.27,10.11-7.55,4.3-15.33,7.83-23.1,11.65-.47-1.63.44-1.75,1.05-2.08.65-.35,1.39-.56,1.94-1.38-.84-2.76-2.39-5.3-3.72-7.94-2.65-5.28-5.25-10.58-7.91-15.85-1.68-3.35-1.71-3.33-5.16-2.39.65-1.69,10.3-6.77,12.81-6.67-.45,1.98-2.89,1.5-3.75,3.3,4.4,8.8,8.89,17.78,13.51,27,2.78-1.33,5.52-2.3,7.75-4.22,1.9-1.64,1.67-3.87,1.39-6.04-.22-1.71-.58-3.4-.88-5.1l.82-.38Z"/>
</svg>