<?xml version="1.0" standalone="no"?>
<!DOCTYPE svg PUBLIC "-//W3C//DTD SVG 20010904//EN"
 "http://www.w3.org/TR/2001/REC-SVG-20010904/DTD/svg10.dtd">
<svg version="1.0" xmlns="http://www.w3.org/2000/svg"
 width="1280.000000pt" height="1280.000000pt" viewBox="0 0 1280.000000 1280.000000"
 preserveAspectRatio="xMidYMid meet">
<metadata>
Created by potrace 1.15, written by Peter Selinger 2001-2017
</metadata>
<g transform="translate(0.000000,1280.000000) scale(0.100000,-0.100000)"
fill="#000000" stroke="none">
<path d="M0 6400 l0 -6400 6400 0 6400 0 0 6400 0 6400 -6400 0 -6400 0 0
-6400z m6818 3677 c2 -12 -9 -17 -53 -22 l-56 -7 5 -37 c3 -20 8 -76 12 -126
3 -49 14 -184 25 -300 10 -115 19 -233 19 -262 l0 -52 -37 -7 c-33 -6 -39 -4
-66 27 -17 19 -100 106 -186 194 -86 89 -198 205 -250 258 -52 54 -96 95 -99
92 -5 -5 20 -372 35 -517 l6 -58 48 0 c44 0 70 -13 55 -27 -7 -7 -240 -30
-255 -25 -6 2 -11 10 -11 17 0 14 30 25 73 25 15 0 27 6 27 13 0 32 -51 685
-55 705 -5 19 -11 22 -60 22 -41 0 -55 4 -55 14 0 22 6 23 111 31 l96 7 139
-143 c76 -79 201 -207 277 -284 l139 -140 -6 40 c-3 22 -12 139 -21 260 -9
121 -18 230 -21 243 -4 20 -10 22 -59 22 -42 0 -55 4 -55 15 0 18 16 21 150
33 123 10 124 10 128 -11z m733 -88 c36 -10 77 -28 91 -39 20 -15 41 -20 93
-20 l66 0 -6 -42 c-4 -24 -14 -83 -23 -133 -15 -76 -20 -90 -36 -90 -16 0 -22
14 -35 80 -9 44 -25 96 -37 115 -26 45 -95 87 -167 101 -119 24 -212 -33 -275
-170 -54 -118 -79 -323 -51 -424 32 -115 193 -189 314 -143 25 10 47 21 50 26
7 12 45 189 45 211 0 13 -14 20 -55 29 -30 6 -55 14 -55 18 1 29 21 28 188 -6
145 -30 172 -38 172 -53 0 -16 -7 -17 -48 -12 l-48 5 -21 -93 c-12 -52 -27
-124 -33 -161 -7 -38 -14 -68 -16 -68 -3 0 -31 13 -64 30 -56 28 -62 29 -117
19 -80 -15 -190 3 -266 44 -87 46 -169 139 -197 223 -55 164 -4 366 118 476
58 52 134 88 206 97 74 10 121 5 207 -20z m-1824 -56 c2 -6 -18 -18 -46 -28
-28 -9 -51 -20 -51 -24 0 -4 23 -82 51 -172 59 -192 102 -333 133 -443 13 -44
28 -82 35 -84 6 -2 25 1 41 7 33 11 60 6 60 -13 0 -11 -299 -106 -333 -106
-36 0 -15 29 33 46 30 11 49 23 46 30 -6 15 -83 269 -154 507 l-56 189 -30 -7
c-52 -12 -81 -11 -81 4 0 13 11 17 170 65 50 15 101 31 115 36 32 11 62 8 67
-7z m-574 -148 c4 -8 -5 -22 -20 -33 l-26 -19 21 -99 c12 -54 35 -162 52 -239
110 -502 106 -479 67 -483 -32 -4 -41 2 -252 171 -88 70 -161 123 -163 118 -3
-8 14 -96 69 -366 25 -121 24 -133 -5 -141 -13 -3 -35 0 -48 7 -20 10 -555
433 -568 449 -3 3 -19 16 -36 27 -30 21 -30 21 -61 2 -26 -17 -32 -17 -42 -5
-10 12 -3 21 41 48 138 88 229 139 238 133 18 -11 10 -24 -30 -50 -22 -14 -40
-29 -40 -33 1 -4 24 -25 52 -47 28 -22 60 -48 72 -58 50 -43 63 -54 106 -87
25 -19 47 -37 50 -40 16 -17 212 -171 215 -168 2 3 -12 78 -66 344 -9 49 -14
54 -110 130 -56 44 -106 82 -112 86 -6 4 -9 10 -5 13 18 18 223 133 230 129
18 -11 6 -30 -34 -53 l-42 -24 49 -43 c146 -126 438 -364 442 -360 4 4 -7 62
-67 326 -36 161 -59 260 -65 278 -3 9 -16 5 -45 -14 -36 -24 -43 -25 -55 -13
-13 13 -3 22 78 71 50 32 95 57 98 58 4 0 9 -7 12 -15z m3320 -118 c43 -21 99
-59 127 -87 46 -45 53 -48 75 -38 14 6 28 8 32 4 11 -11 -95 -216 -111 -216
-24 0 -26 14 -14 73 16 75 0 128 -55 179 -84 78 -193 82 -243 9 -47 -69 -27
-132 87 -276 120 -152 149 -233 111 -316 -34 -77 -98 -123 -186 -135 -97 -14
-267 64 -350 158 -41 47 -46 50 -61 35 -15 -16 -49 -13 -43 4 2 5 28 60 58
124 45 94 59 114 75 112 16 -1 19 -8 17 -32 -1 -16 -5 -60 -8 -97 -8 -87 7
-128 62 -176 95 -84 224 -79 270 10 38 73 15 138 -98 282 -119 151 -143 235
-95 327 18 33 37 51 78 72 47 25 63 28 125 25 57 -3 85 -10 147 -41z m-1353
-832 c58 -9 143 -25 190 -36 47 -11 105 -24 130 -30 51 -12 265 -76 295 -89
92 -38 134 -57 225 -103 94 -46 145 -77 289 -173 24 -16 51 -33 60 -39 8 -5
41 -29 73 -52 31 -24 59 -43 62 -43 17 0 152 -103 221 -170 44 -42 89 -83 100
-91 11 -8 38 -38 59 -66 61 -85 65 -87 301 -155 22 -6 50 -17 62 -25 12 -7 46
-22 75 -34 49 -19 176 -101 219 -141 11 -10 23 -18 27 -18 10 0 65 -59 115
-122 46 -58 81 -126 109 -214 31 -97 31 -314 1 -425 -36 -128 -52 -174 -92
-260 -11 -25 -21 -51 -21 -56 0 -6 -7 -16 -15 -23 -8 -7 -15 -19 -15 -27 0 -8
-13 -34 -29 -58 -16 -24 -32 -53 -36 -64 -3 -12 -11 -21 -16 -21 -7 0 -8 -56
-3 -157 11 -259 -27 -522 -117 -811 -16 -51 -29 -100 -29 -110 0 -9 -7 -30
-15 -46 -8 -15 -15 -33 -15 -38 0 -6 -6 -24 -14 -41 -8 -18 -26 -61 -41 -97
-55 -138 -79 -185 -174 -342 -24 -40 -59 -93 -78 -118 -18 -25 -61 -83 -95
-129 -34 -46 -127 -151 -208 -233 -80 -83 -146 -156 -148 -163 -2 -7 16 -20
40 -30 72 -29 328 -110 408 -129 41 -10 111 -28 155 -41 44 -13 127 -33 185
-44 113 -23 129 -31 105 -51 -19 -16 -303 -37 -611 -45 -126 -3 -287 -10 -359
-15 -71 -5 -224 -16 -340 -25 -213 -15 -275 -28 -365 -75 -48 -25 -318 -114
-405 -134 -167 -37 -215 -46 -249 -46 -20 0 -96 -7 -169 -16 -216 -27 -574 -9
-782 37 -126 29 -307 83 -330 100 -5 4 -26 12 -45 17 -19 6 -55 18 -80 27 -51
18 -352 164 -360 174 -3 3 -32 19 -65 36 -110 54 -307 202 -449 336 -52 49
-100 89 -107 89 -13 0 -24 -19 -76 -140 -13 -30 -37 -83 -54 -118 -16 -35 -29
-67 -29 -72 0 -4 -7 -23 -16 -42 -37 -74 -44 -90 -44 -101 0 -7 -10 -36 -22
-64 -22 -50 -26 -54 -83 -72 -33 -11 -78 -23 -100 -27 -22 -4 -44 -10 -50 -14
-5 -5 -32 -11 -60 -15 -27 -3 -59 -11 -70 -16 -22 -9 -63 -17 -285 -54 -129
-21 -242 -44 -365 -75 -53 -13 -55 -12 -55 5 0 32 367 155 584 196 28 5 74 16
101 23 28 8 85 24 129 35 43 11 86 27 96 36 10 9 28 44 40 78 142 391 397 920
585 1217 148 233 201 313 243 365 4 6 19 28 32 50 13 22 28 45 32 50 131 166
359 426 454 516 118 111 270 240 346 291 269 180 393 242 439 217 26 -14 23
-39 -9 -76 -75 -86 -110 -137 -184 -263 -139 -236 -208 -455 -208 -660 0 -144
34 -291 71 -311 25 -13 157 -5 443 27 120 13 236 24 257 24 21 0 59 7 84 15
25 9 73 20 107 24 88 12 363 68 483 97 94 24 156 42 434 128 63 20 121 36 128
36 7 0 21 4 31 9 49 25 114 51 125 51 8 0 40 14 73 31 32 16 84 41 114 54 31
13 91 44 133 69 43 25 80 46 83 46 5 0 211 133 235 152 102 82 274 246 349
334 62 71 100 122 100 133 0 6 4 11 9 11 10 0 91 135 91 151 0 5 14 35 30 66
17 31 30 60 30 65 0 6 6 24 14 41 62 141 80 433 34 557 -23 62 -63 130 -125
211 -53 69 -181 160 -320 228 -34 17 -64 35 -68 41 -3 5 -15 10 -25 10 -10 0
-31 5 -47 11 -15 6 -29 10 -30 10 -2 0 -22 7 -45 15 -58 21 -302 86 -418 112
-207 46 -303 55 -645 60 -338 5 -588 -8 -825 -43 -52 -7 -120 -16 -150 -20
-274 -30 -850 -170 -1065 -260 -16 -6 -59 -22 -95 -35 -74 -25 -91 -33 -250
-107 -63 -30 -146 -74 -186 -99 -39 -24 -74 -44 -78 -44 -5 0 -28 -13 -53 -30
-24 -16 -46 -30 -48 -30 -7 0 -117 -73 -180 -120 -169 -124 -295 -248 -370
-360 -102 -153 -122 -194 -167 -323 -41 -118 -42 -126 -43 -252 l0 -130 30 -4
c17 -1 59 2 95 8 36 5 112 17 170 26 58 9 120 18 138 21 27 4 36 12 49 42 79
193 162 320 298 457 162 163 351 304 580 432 90 50 249 127 315 153 19 7 40
16 45 20 9 7 183 61 300 95 28 8 97 24 155 35 58 12 132 27 165 35 96 23 322
55 425 60 52 3 169 10 260 16 168 10 277 7 455 -12 100 -11 313 -50 370 -68
17 -5 46 -14 65 -19 19 -6 64 -21 100 -35 318 -121 440 -285 440 -592 0 -98
-4 -124 -31 -205 -65 -199 -168 -350 -351 -518 -74 -67 -220 -182 -232 -182
-3 0 -29 -15 -58 -34 -230 -147 -609 -276 -808 -276 -51 0 -61 3 -79 26 -18
23 -21 41 -21 118 1 327 184 545 530 630 51 13 244 25 305 19 l64 -6 41 -79
c23 -44 49 -82 58 -85 11 -5 29 9 59 43 54 61 172 232 206 299 79 157 76 296
-8 380 -61 61 -120 76 -291 75 -153 -2 -201 4 -254 30 -69 35 -209 79 -351
111 -131 29 -160 32 -319 33 -149 1 -190 -2 -280 -22 -380 -85 -878 -319
-1226 -577 -49 -36 -118 -86 -153 -113 -103 -75 -183 -143 -304 -255 -62 -57
-132 -121 -156 -143 -57 -50 -183 -181 -297 -309 -49 -55 -93 -105 -99 -111
-18 -20 -49 -58 -85 -104 -19 -24 -41 -51 -48 -60 -34 -39 -118 -151 -155
-205 -41 -60 -118 -166 -157 -217 -45 -58 -93 -24 -144 102 -15 36 -31 74 -36
85 -39 87 -83 286 -116 530 -22 161 -25 545 -6 680 33 229 84 447 128 552 8
17 14 36 14 43 0 7 6 26 14 43 8 18 34 77 57 132 39 90 96 205 160 323 12 23
26 42 31 42 4 0 8 5 8 10 0 17 111 164 213 285 69 82 317 328 397 394 128 106
347 242 540 333 142 68 420 168 465 168 12 0 41 7 66 15 74 24 336 64 519 79
95 8 410 -4 510 -19z m-3524 -286 c3 -6 -8 -30 -25 -54 l-31 -44 122 -93 c68
-52 164 -125 213 -163 50 -38 117 -89 150 -114 33 -25 69 -54 79 -63 11 -10
22 -18 25 -18 11 0 111 137 126 173 21 50 5 92 -72 196 -37 49 -40 59 -19 67
13 5 118 -72 203 -149 l22 -19 -75 -97 c-41 -53 -126 -165 -190 -248 -64 -84
-119 -153 -124 -153 -23 0 -18 35 10 66 16 19 30 37 30 39 0 4 -189 152 -360
280 -58 44 -107 82 -110 85 -3 4 -31 26 -63 50 -55 41 -59 42 -71 24 -40 -57
-55 -69 -67 -57 -14 14 -10 21 120 192 46 61 87 111 92 111 4 0 11 -5 15 -11z
m384 -793 c0 -5 -26 -67 -59 -139 -15 -34 -34 -79 -42 -100 -16 -45 -30 -59
-48 -48 -10 7 -9 16 3 46 9 21 15 39 14 40 -2 1 -64 5 -139 8 l-137 7 -56
-127 -56 -128 99 -99 99 -99 17 38 c17 34 40 54 51 43 6 -6 -16 -67 -56 -153
-39 -83 -37 -82 -51 -68 -7 7 -7 22 2 51 l12 40 -297 295 -297 294 17 36 18
37 115 -5 c64 -2 204 -7 311 -10 107 -3 245 -8 305 -11 l110 -6 17 31 c9 17
24 31 33 31 8 0 15 -2 15 -4z m-1109 -683 c3 -23 11 -48 18 -56 17 -21 344
-255 373 -267 30 -13 289 -51 300 -44 4 3 8 16 8 29 0 36 10 55 29 55 16 0 15
-13 -11 -167 -34 -197 -33 -194 -52 -187 -12 5 -14 17 -10 58 l6 53 -89 16
c-204 38 -200 38 -245 18 -24 -10 -74 -28 -113 -41 -38 -12 -83 -28 -100 -35
-16 -7 -66 -25 -110 -40 -102 -35 -125 -49 -125 -80 0 -26 -17 -42 -31 -28 -5
5 2 75 18 171 23 142 29 162 45 162 17 0 18 -5 12 -51 -5 -34 -3 -50 3 -48 6
2 97 33 202 69 105 36 191 68 191 72 0 3 -24 23 -52 44 -29 21 -103 75 -165
121 -62 46 -114 83 -116 83 -3 0 -7 -17 -11 -37 -8 -47 -20 -68 -36 -58 -12 7
-12 11 11 153 10 66 16 82 28 80 10 -2 18 -18 22 -45z m462 -955 c79 -37 157
-114 198 -196 33 -65 34 -71 34 -187 0 -115 -1 -123 -32 -186 -40 -82 -111
-150 -201 -192 -64 -30 -73 -32 -187 -32 -110 0 -125 2 -178 27 -167 79 -262
263 -236 458 17 123 99 239 208 295 72 36 119 44 236 42 84 -2 109 -7 158 -29z
m320 -899 c34 -89 37 -103 24 -117 -17 -21 -164 -201 -180 -222 -7 -8 -27 -34
-45 -57 l-32 -41 20 -46 c19 -46 28 -53 45 -37 6 4 37 18 70 29 58 20 206 80
212 86 2 2 -4 22 -12 46 -18 52 -18 57 -2 63 14 5 35 -37 108 -227 33 -85 39
-110 28 -117 -19 -11 -26 -4 -39 39 -7 20 -16 41 -20 46 -7 7 -114 -33 -480
-179 -63 -26 -136 -54 -162 -63 -53 -18 -59 -32 -33 -83 16 -31 13 -49 -8 -49
-12 0 -121 263 -173 417 -20 59 -25 90 -20 126 12 104 89 185 185 195 41 4 61
-1 105 -22 30 -15 67 -41 81 -58 15 -17 30 -27 34 -22 5 5 60 78 124 162 110
146 115 154 110 192 -4 30 -2 40 8 40 8 0 29 -40 52 -101z m1385 -1776 c53
-31 126 -73 162 -93 170 -97 210 -122 210 -131 0 -11 -87 -179 -99 -192 -4 -4
-13 -2 -18 5 -8 9 -7 33 2 81 16 87 6 126 -43 166 -28 24 -39 28 -48 18 -15
-17 -294 -507 -294 -517 0 -5 16 -18 35 -30 19 -12 35 -28 35 -36 0 -8 -2 -14
-5 -14 -4 0 -63 34 -242 136 -28 16 -40 29 -37 39 5 12 14 10 54 -10 l48 -24
131 229 c72 126 140 245 152 264 l20 35 -30 15 c-52 27 -124 17 -161 -23 -41
-44 -77 -69 -89 -62 -11 7 -9 18 14 58 53 92 87 143 97 143 5 0 53 -25 106
-57z m3222 -153 c0 -5 -18 -19 -40 -30 l-39 -20 22 -47 c27 -56 248 -497 252
-501 6 -7 142 68 160 88 22 24 26 79 12 168 -7 43 -6 52 6 52 15 0 108 -189
100 -203 -5 -9 -440 -227 -453 -227 -24 0 -6 31 25 44 19 8 35 17 35 21 0 13
-271 545 -278 545 -4 -1 -18 -7 -32 -15 -31 -18 -50 -19 -50 -2 0 13 260 147
273 140 4 -2 7 -8 7 -13z m-2647 -136 c230 -75 287 -106 324 -177 50 -97 -28
-237 -133 -237 -61 0 -61 -5 -25 -162 41 -183 40 -178 55 -178 17 0 41 -28 32
-37 -4 -4 -44 5 -89 20 l-83 27 -35 174 -34 175 -38 15 c-38 15 -38 15 -49
-12 -16 -42 -78 -225 -78 -232 0 -4 18 -13 40 -20 40 -13 49 -23 30 -35 -5 -3
-69 14 -142 39 -94 31 -134 49 -136 61 -3 14 1 15 20 9 12 -4 34 -8 47 -8 23
-1 29 14 118 279 51 154 93 282 93 285 0 3 -18 13 -40 22 -37 15 -54 38 -29
38 6 0 75 -21 152 -46z m2320 -91 c41 -128 40 -123 23 -123 -8 0 -29 21 -47
46 -34 50 -81 84 -117 84 -39 0 -174 -43 -179 -57 -5 -11 61 -240 71 -251 3
-2 47 9 100 23 52 15 103 25 112 21 30 -11 2 -27 -103 -56 -66 -18 -98 -32
-97 -41 3 -19 72 -257 78 -268 7 -11 161 37 193 60 30 21 43 60 43 130 0 50 3
59 18 59 14 0 23 -18 40 -87 12 -49 22 -93 22 -99 0 -6 -39 -23 -87 -37 -394
-119 -439 -130 -431 -106 2 8 21 18 41 23 20 5 37 15 37 22 0 7 -16 68 -36
136 -20 68 -49 168 -64 223 -65 229 -60 218 -94 212 -17 -3 -38 -7 -46 -9 -8
-1 -15 3 -15 10 0 9 36 25 95 43 188 58 395 118 407 118 6 1 23 -34 36 -76z
m-553 -98 c0 -7 -12 -15 -27 -17 -27 -3 -29 -6 -89 -243 -110 -427 -107 -420
-136 -423 -14 -2 -31 4 -39 13 -8 10 -80 148 -160 308 l-146 292 -32 -1 c-23
-2 -31 2 -31 16 0 15 13 18 88 24 48 4 108 9 135 13 39 5 47 3 47 -11 0 -9 -6
-16 -12 -17 -22 -1 -62 -9 -65 -13 -3 -2 48 -108 112 -236 64 -128 120 -229
124 -224 5 5 20 56 34 114 14 58 41 167 60 243 l34 137 -43 0 c-32 0 -44 4
-44 14 0 14 31 20 140 29 42 3 50 0 50 -18z m-965 -4 c14 -6 25 -30 41 -92 13
-46 40 -147 62 -224 21 -77 52 -187 67 -244 26 -93 32 -104 57 -113 15 -6 28
-16 28 -24 0 -17 10 -17 -137 2 -89 12 -123 20 -123 30 0 9 12 14 36 14 36 0
36 1 30 33 -4 17 -16 67 -27 109 l-21 77 -66 7 c-37 4 -89 8 -115 8 l-48 1
-50 -92 c-27 -51 -49 -95 -49 -97 0 -3 16 -8 35 -12 21 -4 35 -12 35 -21 0
-12 -13 -14 -77 -8 -88 9 -131 21 -117 35 5 5 24 10 42 12 29 3 38 10 61 53
35 65 144 272 227 430 36 69 70 125 77 124 7 0 21 -4 32 -8z"/>
<path d="M7020 4964 c-25 -2 -85 -8 -135 -14 -49 -6 -199 -17 -332 -25 -134
-9 -249 -18 -258 -21 -82 -32 190 -436 443 -658 108 -94 178 -148 313 -237
138 -92 430 -245 534 -280 43 -14 253 -17 425 -6 52 3 266 10 475 15 368 10
485 17 485 31 0 4 -44 20 -97 35 -231 67 -541 176 -608 215 -16 10 -84 49
-150 88 -66 39 -149 87 -185 107 -300 168 -568 415 -658 606 -11 25 -31 69
-44 98 l-23 52 -70 -2 c-38 -1 -90 -3 -115 -4z"/>
<path d="M3200 7577 c45 -53 226 -225 231 -220 10 12 91 205 87 209 -6 6 -323
17 -318 11z"/>
<path d="M3033 5966 c-173 -33 -262 -116 -263 -244 0 -91 42 -161 125 -205 36
-20 55 -22 200 -22 140 0 169 3 230 23 82 27 158 79 181 123 22 43 29 125 15
177 -15 55 -64 110 -121 136 -58 26 -259 32 -367 12z"/>
<path d="M3157 4870 c-65 -20 -137 -104 -137 -158 0 -21 47 -152 58 -164 4 -4
79 22 167 57 118 47 161 69 162 82 4 28 -59 145 -89 167 -31 22 -117 31 -161
16z"/>
<path d="M5642 3079 c-42 -113 -82 -243 -79 -252 2 -6 30 -18 63 -27 82 -23
127 -10 169 49 38 54 42 133 9 178 -22 30 -76 60 -124 70 -25 4 -31 1 -38 -18z"/>
<path d="M6283 2710 c-34 -66 -59 -121 -55 -124 4 -3 48 -8 96 -12 l89 -7 -7
39 c-7 40 -43 175 -54 206 -5 13 -24 -15 -69 -102z"/>
</g>
</svg>
